# xmcd
#
# Track frame offsets:
# 150
# 10629
# 30915
# 52336
# 77448
# 94781
# 117285
# 131872
# 148265
# 160471
# 170370
# 181429
#
# Disc length: 2762 seconds
#
#
# Revision: 0
# Processed by: cddbd v1.5.1PL0 Copyright (c) Steve Scherf et al.
# Submitted via: FreeRIP 2.40 
#
DISCID=9d0ac80c
DTITLE=Johnny Cox - FINALLY
DYEAR=1900
DGENRE=Country
TTITLE0=Soul Serenade
TTITLE1=Danny Boy
TTITLE2=Watermellon Man
TTITLE3=Clyde's Ride
TTITLE4=Last Night
TTITLE5=Summertime
TTITLE6=Raunchy
TTITLE7=All of Me
TTITLE8=You're All I Got
TTITLE9=Hold It
TTITLE10=Doo Da
TTITLE11=Savannah in the Rain
EXTD=
EXTT0=
EXTT1=
EXTT2=
EXTT3=
EXTT4=
EXTT5=
EXTT6=
EXTT7=
EXTT8=
EXTT9=
EXTT10=
EXTT11=
PLAYORDER=
